<?xml version="1.0" encoding="UTF-8"?>
<!DOCTYPE svg PUBLIC "-//W3C//DTD SVG 1.1//EN" "http://www.w3.org/Graphics/SVG/1.1/DTD/svg11.dtd">
<svg xmlns="http://www.w3.org/2000/svg" version="1.1" width="164px" height="50px" style="shape-rendering:geometricPrecision; text-rendering:geometricPrecision; image-rendering:optimizeQuality; fill-rule:evenodd; clip-rule:evenodd" xmlns:xlink="http://www.w3.org/1999/xlink">
<g><path style="opacity:1" fill="#113072" d="M 122.5,15.5 C 122.5,16.8333 122.5,18.1667 122.5,19.5C 124.167,19.5 125.833,19.5 127.5,19.5C 127.5,19.8333 127.5,20.1667 127.5,20.5C 125.833,20.5 124.167,20.5 122.5,20.5C 122.5,23.1667 122.5,25.8333 122.5,28.5C 123.552,28.3505 124.552,28.5172 125.5,29C 123.866,29.4935 122.199,29.6602 120.5,29.5C 118.631,27.3647 117.964,24.6981 118.5,21.5C 117.167,20.5 117.167,19.5 118.5,18.5C 118.5,17.5 118.5,16.5 118.5,15.5C 119.833,15.5 121.167,15.5 122.5,15.5 Z"/></g>
<g><path style="opacity:1" fill="#4e568f" d="M 93.5,16.5 C 94.8333,16.5 96.1667,16.5 97.5,16.5C 97.5,17.5 97.5,18.5 97.5,19.5C 96.1667,19.5 94.8333,19.5 93.5,19.5C 93.5,18.5 93.5,17.5 93.5,16.5 Z"/></g>
<g><path style="opacity:1" fill="#8ea0be" d="M 118.5,18.5 C 117.167,19.5 117.167,20.5 118.5,21.5C 115.833,20.5 115.833,19.5 118.5,18.5 Z"/></g>
<g><path style="opacity:1" fill="#9dadc6" d="M 122.5,15.5 C 123.404,16.209 123.737,17.209 123.5,18.5C 125.099,18.2322 126.432,18.5655 127.5,19.5C 125.833,19.5 124.167,19.5 122.5,19.5C 122.5,18.1667 122.5,16.8333 122.5,15.5 Z"/></g>
<g><path style="opacity:1" fill="#889aba" d="M 154.5,19.5 C 155.919,18.5489 157.585,18.2155 159.5,18.5C 159.768,20.099 159.434,21.4324 158.5,22.5C 158.5,21.5 158.5,20.5 158.5,19.5C 157.167,19.5 155.833,19.5 154.5,19.5 Z"/></g>
<g><path style="opacity:1" fill="#072a6e" d="M 153.5,19.5 C 153.833,19.5 154.167,19.5 154.5,19.5C 155.833,19.5 157.167,19.5 158.5,19.5C 158.5,20.5 158.5,21.5 158.5,22.5C 156.833,22.5 155.167,22.5 153.5,22.5C 152.532,24.6074 152.198,26.9407 152.5,29.5C 151.5,29.5 150.5,29.5 149.5,29.5C 149.5,26.1667 149.5,22.8333 149.5,19.5C 151.139,19.9258 152.472,19.9258 153.5,19.5 Z"/></g>
<g><path style="opacity:1" fill="#173274" d="M 85.5,15.5 C 85.5,16.8333 85.5,18.1667 85.5,19.5C 90.8333,19.8333 90.8333,20.1667 85.5,20.5C 85.5,23.1667 85.5,25.8333 85.5,28.5C 86.552,28.3505 87.552,28.5172 88.5,29C 86.8659,29.4935 85.1992,29.6602 83.5,29.5C 81.9606,26.6336 80.6272,23.4669 79.5,20C 80.7073,18.6998 81.3739,17.1998 81.5,15.5C 82.8333,15.5 84.1667,15.5 85.5,15.5 Z"/></g>
<g><path style="opacity:1" fill="#6c83aa" d="M 153.5,19.5 C 152.472,19.9258 151.139,19.9258 149.5,19.5C 149.5,22.8333 149.5,26.1667 149.5,29.5C 150.5,29.5 151.5,29.5 152.5,29.5C 152.198,26.9407 152.532,24.6074 153.5,22.5C 153.5,25.1667 153.5,27.8333 153.5,30.5C 151.833,30.5 150.167,30.5 148.5,30.5C 148.5,26.5 148.5,22.5 148.5,18.5C 150.415,18.2155 152.081,18.5489 153.5,19.5 Z"/></g>
<g><path style="opacity:1" fill="#0b2d6f" d="M 7.5,1.5 C 22.5037,1.33342 37.5037,1.50008 52.5,2C 55.7089,4.5074 57.3756,7.84074 57.5,12C 56.8223,22.4698 56.1557,32.9698 55.5,43.5C 54.9747,44.1924 54.3081,44.6924 53.5,45C 45.6667,45.1667 37.8333,45.3333 30,45.5C 21.4025,45.6385 12.9025,45.1385 4.5,44C 3.17841,30.896 3.17841,17.7294 4.5,4.5C 5.85493,3.81181 6.85493,2.81181 7.5,1.5 Z"/></g>
<g><path style="opacity:1" fill="#f9fafc" d="M 20.5,15.5 C 20.8333,15.5 21.1667,15.5 21.5,15.5C 19.8004,17.2099 18.4671,19.2099 17.5,21.5C 16.675,22.3857 15.675,22.719 14.5,22.5C 15.0922,18.9111 17.0922,16.5778 20.5,15.5 Z"/></g>
<g><path style="opacity:1" fill="#417be2" d="M 34.5,17.5 C 35.6148,19.3069 36.2814,21.3069 36.5,23.5C 36.1604,25.5122 35.8271,27.5122 35.5,29.5C 34.3064,30.7773 32.6397,31.4439 30.5,31.5C 21.9783,31.4451 19.145,27.4451 22,19.5C 25.8021,15.2201 29.9687,14.5535 34.5,17.5 Z"/></g>
<g><path style="opacity:1" fill="#80a9ed" d="M 20.5,15.5 C 17.0922,16.5778 15.0922,18.9111 14.5,22.5C 12.8333,22.5 11.1667,22.5 9.5,22.5C 9.05484,19.6354 9.7215,17.1354 11.5,15C 14.6965,14.1955 17.6965,14.3622 20.5,15.5 Z"/></g>
<g><path style="opacity:1" fill="#aec7f2" d="M 10.5,8.5 C 20.8546,8.8011 31.1879,9.46776 41.5,10.5C 38.9742,11.8972 36.3076,12.8972 33.5,13.5C 29.3425,13.3316 25.3425,13.9983 21.5,15.5C 21.1667,15.5 20.8333,15.5 20.5,15.5C 17.6965,14.3622 14.6965,14.1955 11.5,15C 9.7215,17.1354 9.05484,19.6354 9.5,22.5C 8.5,22.5 7.5,22.5 6.5,22.5C 6.5,20.1667 6.5,17.8333 6.5,15.5C 7.4959,15.5858 8.32924,15.2524 9,14.5C 9.81299,12.5643 10.313,10.5643 10.5,8.5 Z"/></g>
<g><path style="opacity:1" fill="#88afee" d="M 50.5,22.5 C 47.7531,22.8134 45.0865,22.48 42.5,21.5C 40.6958,17.3557 37.6958,14.689 33.5,13.5C 36.3076,12.8972 38.9742,11.8972 41.5,10.5C 31.1879,9.46776 20.8546,8.8011 10.5,8.5C 22.7569,7.34333 35.7569,7.17666 49.5,8C 50.4692,12.7367 50.8025,17.57 50.5,22.5 Z"/></g>
<g><path style="opacity:1" fill="#f5f7fb" d="M 50.5,22.5 C 50.8025,17.57 50.4692,12.7367 49.5,8C 35.7569,7.17666 22.7569,7.34333 10.5,8.5C 10.313,10.5643 9.81299,12.5643 9,14.5C 8.32924,15.2524 7.4959,15.5858 6.5,15.5C 6.33537,12.4816 6.50204,9.48162 7,6.5C 7.5,6 8,5.5 8.5,5C 22.8333,4.33333 37.1667,4.33333 51.5,5C 52,5.5 52.5,6 53,6.5C 53.4994,11.8229 53.666,17.1563 53.5,22.5C 52.5,22.5 51.5,22.5 50.5,22.5 Z"/></g>
<g><path style="opacity:1" fill="#1b3374" d="M 93.5,20.5 C 94.8333,20.5 96.1667,20.5 97.5,20.5C 97.5,23.8333 97.5,27.1667 97.5,30.5C 96.1667,30.5 94.8333,30.5 93.5,30.5C 93.5,27.1667 93.5,23.8333 93.5,20.5 Z"/></g>
<g><path style="opacity:1" fill="#eff2f7" d="M 34.5,17.5 C 39.4729,19.8123 40.6396,23.479 38,28.5C 37.3292,29.2524 36.4959,29.5858 35.5,29.5C 35.8271,27.5122 36.1604,25.5122 36.5,23.5C 36.2814,21.3069 35.6148,19.3069 34.5,17.5 Z"/></g>
<g><path style="opacity:1" fill="#92a3c0" d="M 85.5,15.5 C 86.404,16.209 86.7373,17.209 86.5,18.5C 87.8333,18.5 89.1667,18.5 90.5,18.5C 90.5,19.5 90.5,20.5 90.5,21.5C 89.1667,21.5 87.8333,21.5 86.5,21.5C 86.5,23.5 86.5,25.5 86.5,27.5C 87.5,27.5 88.5,27.5 89.5,27.5C 89.5,28.5 89.5,29.5 89.5,30.5C 87.2646,30.7947 85.2646,30.4614 83.5,29.5C 85.1992,29.6602 86.8659,29.4935 88.5,29C 87.552,28.5172 86.552,28.3505 85.5,28.5C 85.5,25.8333 85.5,23.1667 85.5,20.5C 90.8333,20.1667 90.8333,19.8333 85.5,19.5C 85.5,18.1667 85.5,16.8333 85.5,15.5 Z"/></g>
<g><path style="opacity:1" fill="#183274" d="M 113.5,29.5 C 112.5,29.5 111.5,29.5 110.5,29.5C 110.5,26.5 110.5,23.5 110.5,20.5C 109.209,20.2627 108.209,20.596 107.5,21.5C 107.5,22.1667 107.167,22.5 106.5,22.5C 105.532,24.6074 105.198,26.9407 105.5,29.5C 104.167,29.5 102.833,29.5 101.5,29.5C 101.5,25.8333 101.5,22.1667 101.5,18.5C 105.436,19.2093 109.436,19.2093 113.5,18.5C 113.5,22.1667 113.5,25.8333 113.5,29.5 Z"/></g>
<g><path style="opacity:1" fill="#97a7c2" d="M 127.5,20.5 C 126.432,21.4345 125.099,21.7678 123.5,21.5C 123.5,23.5 123.5,25.5 123.5,27.5C 124.5,27.5 125.5,27.5 126.5,27.5C 126.5,28.5 126.5,29.5 126.5,30.5C 124.265,30.7947 122.265,30.4614 120.5,29.5C 122.199,29.6602 123.866,29.4935 125.5,29C 124.552,28.5172 123.552,28.3505 122.5,28.5C 122.5,25.8333 122.5,23.1667 122.5,20.5C 124.167,20.5 125.833,20.5 127.5,20.5 Z"/></g>
<g><path style="opacity:1" fill="#283d7c" d="M 72.5,18.5 C 70.7354,17.5386 68.7354,17.2053 66.5,17.5C 66.2627,18.791 66.596,19.791 67.5,20.5C 70.3071,21.5767 73.1405,22.5767 76,23.5C 76.4966,25.8098 76.6633,28.1432 76.5,30.5C 71.8333,30.5 67.1667,30.5 62.5,30.5C 62.5,28.8333 62.5,27.1667 62.5,25.5C 63.8333,25.5 65.1667,25.5 66.5,25.5C 66.5,26.5 66.5,27.5 66.5,28.5C 68.7354,28.7947 70.7354,28.4614 72.5,27.5C 70.3068,24.6939 67.3068,23.0272 63.5,22.5C 62.5258,20.2573 62.1924,17.924 62.5,15.5C 67.1667,15.5 71.8333,15.5 76.5,15.5C 76.5,17.1667 76.5,18.8333 76.5,20.5C 74.5168,20.8432 73.1834,20.1765 72.5,18.5 Z"/></g>
<g><path style="opacity:1" fill="#abb8ce" d="M 72.5,18.5 C 70.2188,18.0773 68.5521,18.744 67.5,20.5C 66.596,19.791 66.2627,18.791 66.5,17.5C 68.7354,17.2053 70.7354,17.5386 72.5,18.5 Z"/></g>
<g><path style="opacity:1" fill="#374783" d="M 130.5,18.5 C 135.167,18.5 139.833,18.5 144.5,18.5C 144.5,20.8333 144.5,23.1667 144.5,25.5C 141.102,25.1796 137.768,25.513 134.5,26.5C 137.795,27.4015 141.128,27.4015 144.5,26.5C 144.5,27.8333 144.5,29.1667 144.5,30.5C 139.833,30.5 135.167,30.5 130.5,30.5C 130.5,26.5 130.5,22.5 130.5,18.5 Z"/></g>
<g><path style="opacity:1" fill="#eef1f9" d="M 6.5,26.5 C 9.97579,25.3567 13.6425,25.1901 17.5,26C 18.9088,30.4064 21.9088,33.0731 26.5,34C 30.6489,34.6692 34.6489,34.1692 38.5,32.5C 28.2155,40.3978 19.8822,38.7311 13.5,27.5C 11.2573,26.5258 8.92397,26.1924 6.5,26.5 Z"/></g>
<g><path style="opacity:1" fill="#f0f2f6" d="M 42.5,26.5 C 45.9619,25.5184 49.6286,25.185 53.5,25.5C 53.6659,30.5111 53.4993,35.5111 53,40.5C 52.5831,41.756 51.7498,42.4226 50.5,42.5C 50.5,37.1667 50.5,31.8333 50.5,26.5C 47.8333,26.5 45.1667,26.5 42.5,26.5 Z"/></g>
<g><path style="opacity:1" fill="#bec9d9" d="M 106.5,22.5 C 106.5,25.1667 106.5,27.8333 106.5,30.5C 104.585,30.7845 102.919,30.4511 101.5,29.5C 102.833,29.5 104.167,29.5 105.5,29.5C 105.198,26.9407 105.532,24.6074 106.5,22.5 Z"/></g>
<g><path style="opacity:1" fill="#9dacc6" d="M 107.5,21.5 C 108.209,20.596 109.209,20.2627 110.5,20.5C 110.5,23.5 110.5,26.5 110.5,29.5C 111.5,29.5 112.5,29.5 113.5,29.5C 112.432,30.4345 111.099,30.7678 109.5,30.5C 110.055,26.9878 109.388,23.9878 107.5,21.5 Z"/></g>
<g><path style="opacity:1" fill="#0c55d9" d="M 6.5,26.5 C 8.92397,26.1924 11.2573,26.5258 13.5,27.5C 19.8822,38.7311 28.2155,40.3978 38.5,32.5C 40.2896,30.7278 41.6229,28.7278 42.5,26.5C 45.1667,26.5 47.8333,26.5 50.5,26.5C 50.5,31.8333 50.5,37.1667 50.5,42.5C 36.9083,43.6473 23.2416,43.814 9.5,43C 8.58377,42.6258 7.75044,42.1258 7,41.5C 6.50074,36.5111 6.33407,31.5111 6.5,26.5 Z"/></g>
<g><path style="opacity:1" fill="#748aaf" d="M 66.5,25.5 C 68.1137,27.0746 70.1137,27.7413 72.5,27.5C 70.7354,28.4614 68.7354,28.7947 66.5,28.5C 66.5,27.5 66.5,26.5 66.5,25.5 Z"/></g>
</svg>
